<?xml version="1.0" encoding="UTF-8"?>
<!DOCTYPE svg PUBLIC "-//W3C//DTD SVG 1.1//EN" "http://www.w3.org/Graphics/SVG/1.1/DTD/svg11.dtd">
<svg xmlns="http://www.w3.org/2000/svg" version="1.1" width="530px" height="92px" style="shape-rendering:geometricPrecision; text-rendering:geometricPrecision; image-rendering:optimizeQuality; fill-rule:evenodd; clip-rule:evenodd" xmlns:xlink="http://www.w3.org/1999/xlink">
<g><path style="opacity:1" fill="#fdfdfd" d="M -0.5,-0.5 C 176.167,-0.5 352.833,-0.5 529.5,-0.5C 529.5,30.1667 529.5,60.8333 529.5,91.5C 352.833,91.5 176.167,91.5 -0.5,91.5C -0.5,60.8333 -0.5,30.1667 -0.5,-0.5 Z"/></g>
<g><path style="opacity:1" fill="#060606" d="M 332.5,45.5 C 329.615,45.1936 326.948,45.5269 324.5,46.5C 324.511,48.0174 325.177,49.1841 326.5,50C 329.688,51.3827 332.854,51.5494 336,50.5C 337.325,55.4012 337.825,60.4012 337.5,65.5C 333.124,65.9088 328.79,66.5755 324.5,67.5C 322.94,65.8439 321.94,63.8439 321.5,61.5C 319.222,50.0116 312.222,45.5116 300.5,48C 292.271,52.2859 288.605,59.1192 289.5,68.5C 261.5,68.5 233.5,68.5 205.5,68.5C 204.683,50.8363 196.016,45.003 179.5,51C 176.909,53.3575 175.242,56.1908 174.5,59.5C 173.532,61.6074 173.198,63.9407 173.5,66.5C 172.5,66.5 171.5,66.5 170.5,66.5C 155.165,66.8578 150.499,59.8578 156.5,45.5C 156.833,45.5 157.167,45.5 157.5,45.5C 161.851,46.467 164.185,44.8004 164.5,40.5C 162.708,40.634 161.042,40.3007 159.5,39.5C 159.5,38.8333 159.167,38.5 158.5,38.5C 158.5,37.1667 158.5,35.8333 158.5,34.5C 163.847,33.8313 169.18,32.9979 174.5,32C 184.293,28.1836 193.959,24.1836 203.5,20C 232.785,13.6089 259.785,18.6089 284.5,35C 299.908,35.4013 314.908,38.068 329.5,43C 330.942,43.3768 331.942,44.2101 332.5,45.5 Z"/></g>
<g><path style="opacity:1" fill="#fafafa" d="M 230.5,28.5 C 230.5,30.5 230.5,32.5 230.5,34.5C 221.833,34.5 213.167,34.5 204.5,34.5C 202.801,34.6602 201.134,34.4935 199.5,34C 201.587,30.4918 203.92,27.1584 206.5,24C 214.332,21.7833 222.332,20.95 230.5,21.5C 230.5,23.8333 230.5,26.1667 230.5,28.5 Z"/></g>
<g><path style="opacity:1" fill="#fbfbfb" d="M 261.5,36.5 C 253.599,35.8048 245.599,35.1382 237.5,34.5C 236.668,30.1704 235.335,26.0037 233.5,22C 245.474,20.7713 256.474,23.438 266.5,30C 265.584,30.3742 264.75,30.8742 264,31.5C 263.95,33.744 263.117,35.4107 261.5,36.5 Z"/></g>
<g><path style="opacity:1" fill="#efefef" d="M 199.5,26.5 C 200.376,26.3691 201.043,26.7025 201.5,27.5C 200.167,29.5 198.833,31.5 197.5,33.5C 194.894,34.6517 192.227,34.8184 189.5,34C 192.734,31.2519 196.068,28.7519 199.5,26.5 Z"/></g>
<g><path style="opacity:1" fill="#090909" d="M 24.5,32.5 C 26.924,32.1924 29.2573,32.5258 31.5,33.5C 35.5589,43.285 39.8923,52.9516 44.5,62.5C 41.9135,63.48 39.2469,63.8134 36.5,63.5C 36.5792,62.0695 36.2458,60.7362 35.5,59.5C 30.1667,58.1667 24.8333,58.1667 19.5,59.5C 18.7542,60.7362 18.4208,62.0695 18.5,63.5C 15.8127,63.6641 13.146,63.4974 10.5,63C 15.0356,52.7628 19.7023,42.5961 24.5,32.5 Z"/></g>
<g><path style="opacity:1" fill="#050505" d="M 48.5,32.5 C 50.8333,32.5 53.1667,32.5 55.5,32.5C 55.3337,39.8409 55.5003,47.1742 56,54.5C 57.6658,57.3788 60.1658,58.2121 63.5,57C 64.1258,56.2496 64.6258,55.4162 65,54.5C 65.4997,47.1742 65.6663,39.8409 65.5,32.5C 67.8333,32.5 70.1667,32.5 72.5,32.5C 72.9099,41.2498 72.4099,49.9164 71,58.5C 62.8549,66.9209 55.5215,66.2542 49,56.5C 48.5003,48.5069 48.3336,40.5069 48.5,32.5 Z"/></g>
<g><path style="opacity:1" fill="#040404" d="M 99.5,38.5 C 96.8333,38.5 94.1667,38.5 91.5,38.5C 91.5,46.8333 91.5,55.1667 91.5,63.5C 89.1667,63.5 86.8333,63.5 84.5,63.5C 84.5,55.1667 84.5,46.8333 84.5,38.5C 82.1667,38.5 79.8333,38.5 77.5,38.5C 77.5,36.5 77.5,34.5 77.5,32.5C 84.8333,32.5 92.1667,32.5 99.5,32.5C 99.5,34.5 99.5,36.5 99.5,38.5 Z"/></g>
<g><path style="opacity:1" fill="#090909" d="M 114.5,32.5 C 132.05,31.9741 138.216,39.9741 133,56.5C 127.273,63.4902 120.106,65.3235 111.5,62C 104.286,57.0367 101.786,50.2034 104,41.5C 106.489,37.1675 109.989,34.1675 114.5,32.5 Z"/></g>
<g><path style="opacity:1" fill="#8c8c8c" d="M 371.5,32.5 C 366.5,32.5 361.5,32.5 356.5,32.5C 356.5,42.8333 356.5,53.1667 356.5,63.5C 358.833,63.5 361.167,63.5 363.5,63.5C 361.052,64.4731 358.385,64.8064 355.5,64.5C 355.5,53.5 355.5,42.5 355.5,31.5C 361.026,31.1786 366.36,31.5119 371.5,32.5 Z"/></g>
<g><path style="opacity:1" fill="#020202" d="M 371.5,32.5 C 379.383,35.3718 381.549,40.7052 378,48.5C 374.2,52.8236 369.367,54.4902 363.5,53.5C 363.5,56.8333 363.5,60.1667 363.5,63.5C 361.167,63.5 358.833,63.5 356.5,63.5C 356.5,53.1667 356.5,42.8333 356.5,32.5C 361.5,32.5 366.5,32.5 371.5,32.5 Z"/></g>
<g><path style="opacity:1" fill="#777777" d="M 384.5,32.5 C 384.5,42.8333 384.5,53.1667 384.5,63.5C 390.833,63.5 397.167,63.5 403.5,63.5C 397.021,64.4907 390.354,64.824 383.5,64.5C 383.172,53.6536 383.506,42.9869 384.5,32.5 Z"/></g>
<g><path style="opacity:1" fill="#030303" d="M 403.5,63.5 C 397.167,63.5 390.833,63.5 384.5,63.5C 384.5,53.1667 384.5,42.8333 384.5,32.5C 386.607,31.5318 388.941,31.1984 391.5,31.5C 391.5,40.1667 391.5,48.8333 391.5,57.5C 395.5,57.5 399.5,57.5 403.5,57.5C 403.5,59.5 403.5,61.5 403.5,63.5 Z"/></g>
<g><path style="opacity:1" fill="#0d0d0d" d="M 414.5,63.5 C 411.941,63.8016 409.607,63.4682 407.5,62.5C 411.821,52.5215 416.154,42.5215 420.5,32.5C 423.034,31.2234 425.534,31.2234 428,32.5C 432.5,42.8333 437,53.1667 441.5,63.5C 438.914,64.48 436.247,64.8134 433.5,64.5C 433.528,62.4176 432.861,60.5843 431.5,59C 426.5,58.3333 421.5,58.3333 416.5,59C 415.733,60.4705 415.067,61.9705 414.5,63.5 Z"/></g>
<g><path style="opacity:1" fill="#111111" d="M 470.5,63.5 C 461.983,63.8261 453.65,63.4927 445.5,62.5C 449.694,54.6134 454.028,46.78 458.5,39C 454.179,38.501 449.846,38.3343 445.5,38.5C 445.5,36.1667 445.5,33.8333 445.5,31.5C 453.5,31.5 461.5,31.5 469.5,31.5C 465.852,40.2946 461.519,48.7946 456.5,57C 461.155,57.4992 465.821,57.6658 470.5,57.5C 470.5,59.5 470.5,61.5 470.5,63.5 Z"/></g>
<g><path style="opacity:1" fill="#0d0d0d" d="M 507.5,62.5 C 505.393,63.4682 503.059,63.8016 500.5,63.5C 498.849,59.4794 495.682,57.8128 491,58.5C 485.637,57.2006 482.137,59.0339 480.5,64C 478.19,64.4966 475.857,64.6633 473.5,64.5C 477.706,53.7501 482.206,43.0835 487,32.5C 489.466,31.2234 491.966,31.2234 494.5,32.5C 498.846,42.5215 503.179,52.5215 507.5,62.5 Z"/></g>
<g><path style="opacity:1" fill="#878787" d="M 230.5,28.5 C 231.468,30.6074 231.802,32.9407 231.5,35.5C 222.318,35.8266 213.318,35.4933 204.5,34.5C 213.167,34.5 221.833,34.5 230.5,34.5C 230.5,32.5 230.5,30.5 230.5,28.5 Z"/></g>
<g><path style="opacity:1" fill="#878787" d="M 237.5,34.5 C 245.599,35.1382 253.599,35.8048 261.5,36.5C 253.097,37.1335 245.097,36.4668 237.5,34.5 Z"/></g>
<g><path style="opacity:1" fill="#989898" d="M 99.5,38.5 C 97.3926,39.4682 95.0593,39.8016 92.5,39.5C 92.8257,47.6841 92.4924,55.6841 91.5,63.5C 91.5,55.1667 91.5,46.8333 91.5,38.5C 94.1667,38.5 96.8333,38.5 99.5,38.5 Z"/></g>
<g><path style="opacity:1" fill="#f2f2f2" d="M 116.5,38.5 C 126.003,38.4713 129.503,43.138 127,52.5C 120.725,59.6464 115.392,58.9797 111,50.5C 109.873,45.0891 111.707,41.0891 116.5,38.5 Z"/></g>
<g><path style="opacity:1" fill="#e8e8e8" d="M 159.5,39.5 C 161.042,40.3007 162.708,40.634 164.5,40.5C 164.185,44.8004 161.851,46.467 157.5,45.5C 157.259,43.1016 157.926,41.1016 159.5,39.5 Z"/></g>
<g><path style="opacity:1" fill="#ebebeb" d="M 363.5,38.5 C 365.527,38.3379 367.527,38.5045 369.5,39C 373.108,40.9569 373.441,43.4569 370.5,46.5C 368.253,47.3742 365.92,47.7076 363.5,47.5C 363.5,44.5 363.5,41.5 363.5,38.5 Z"/></g>
<g><path style="opacity:1" fill="#5b5b5b" d="M 158.5,38.5 C 159.167,38.5 159.5,38.8333 159.5,39.5C 157.926,41.1016 157.259,43.1016 157.5,45.5C 157.167,45.5 156.833,45.5 156.5,45.5C 156.171,42.7718 156.837,40.4385 158.5,38.5 Z"/></g>
<g><path style="opacity:1" fill="#f0f0f0" d="M 423.5,41.5 C 425.94,44.7202 427.607,48.3869 428.5,52.5C 425.428,52.8174 422.428,52.4841 419.5,51.5C 421.306,48.3591 422.639,45.0257 423.5,41.5 Z"/></g>
<g><path style="opacity:1" fill="#ebebeb" d="M 26.5,41.5 C 29.0875,44.4893 31.0875,47.9893 32.5,52C 29.1667,52.6667 25.8333,52.6667 22.5,52C 24.3296,48.6763 25.6629,45.1763 26.5,41.5 Z"/></g>
<g><path style="opacity:1" fill="#ededed" d="M 489.5,41.5 C 490.376,41.3691 491.043,41.7025 491.5,42.5C 492.559,45.6179 493.892,48.6179 495.5,51.5C 492.572,52.4841 489.572,52.8174 486.5,52.5C 487.301,48.7653 488.301,45.0986 489.5,41.5 Z"/></g>
<g><path style="opacity:1" fill="#616161" d="M 324.5,46.5 C 326.948,45.5269 329.615,45.1936 332.5,45.5C 334.609,46.0524 335.442,47.3858 335,49.5C 332.107,46.8496 328.607,45.8496 324.5,46.5 Z"/></g>
<g><path style="opacity:1" fill="#141414" d="M 185.5,49.5 C 200.228,49.7041 205.395,56.7041 201,70.5C 194.086,77.9643 186.92,78.2976 179.5,71.5C 173.953,61.9687 175.953,54.6353 185.5,49.5 Z"/></g>
<g><path style="opacity:1" fill="#141414" d="M 301.5,49.5 C 311.968,47.9879 318.301,52.3213 320.5,62.5C 319.087,72.4174 313.42,76.9174 303.5,76C 295.76,72.689 292.593,66.8557 294,58.5C 295.642,54.6997 298.142,51.6997 301.5,49.5 Z"/></g>
<g><path style="opacity:1" fill="#dbdbdb" d="M 314.5,57.5 C 316.011,58.9575 317.011,60.7908 317.5,63C 316.771,65.0581 315.771,66.8914 314.5,68.5C 314.189,69.4778 313.522,70.1445 312.5,70.5C 311.186,69.6872 310.019,68.6872 309,67.5C 308.506,69.1341 308.34,70.8008 308.5,72.5C 300.676,72.9182 299.343,70.7516 304.5,66C 302.744,65.8595 301.078,66.3595 299.5,67.5C 296.233,62.2197 297.233,57.7197 302.5,54C 305.5,53.3333 308.5,53.3333 311.5,54C 313.063,54.7589 314.063,55.9256 314.5,57.5 Z"/></g>
<g><path style="opacity:1" fill="#dadada" d="M 197.5,58.5 C 199.857,61.333 200.024,64.333 198,67.5C 191.448,64.5754 190.948,65.4088 196.5,70C 196,70.5 195.5,71 195,71.5C 191.958,66.1879 190.791,66.8546 191.5,73.5C 182.476,72.976 178.976,68.3094 181,59.5C 184.966,53.0756 190.133,51.9089 196.5,56C 197.252,56.6708 197.586,57.5041 197.5,58.5 Z"/></g>
<g><path style="opacity:1" fill="#020202" d="M 186.5,55.5 C 188.225,55.8425 188.725,56.8425 188,58.5C 186.961,57.7562 186.461,56.7562 186.5,55.5 Z"/></g>
<g><path style="opacity:1" fill="#151515" d="M 191.5,55.5 C 193.973,55.9473 194.14,56.9473 192,58.5C 191.517,57.552 191.351,56.552 191.5,55.5 Z"/></g>
<g><path style="opacity:1" fill="#282828" d="M 303.5,55.5 C 306.076,55.7218 306.91,57.0551 306,59.5C 304.519,58.5291 303.685,57.1958 303.5,55.5 Z"/></g>
<g><path style="opacity:1" fill="#1c1c1c" d="M 308.5,54.5 C 310.914,55.7767 311.081,57.4434 309,59.5C 308.506,57.8659 308.34,56.1992 308.5,54.5 Z"/></g>
<g><path style="opacity:1" fill="#d9d9d9" d="M 277.5,60.5 C 274.375,61.4794 271.042,61.8128 267.5,61.5C 247.149,61.1507 226.816,60.3174 206.5,59C 207.167,58.3333 207.833,57.6667 208.5,57C 231.515,57.6258 254.515,58.7924 277.5,60.5 Z"/></g>
<g><path style="opacity:1" fill="#171717" d="M 183.5,57.5 C 189.069,61.5429 188.736,62.2096 182.5,59.5C 182.863,58.8165 183.196,58.1499 183.5,57.5 Z"/></g>
<g><path style="opacity:1" fill="#242424" d="M 300.5,57.5 C 302.134,58.2066 303.468,59.3732 304.5,61C 303.092,61.3152 301.759,60.9819 300.5,60C 299.402,59.2303 299.402,58.397 300.5,57.5 Z"/></g>
<g><path style="opacity:1" fill="#1f1f1f" d="M 197.5,58.5 C 196.678,60.7279 195.345,61.3946 193.5,60.5C 194.368,58.2038 195.702,57.5371 197.5,58.5 Z"/></g>
<g><path style="opacity:1" fill="#1f1f1f" d="M 314.5,57.5 C 314.238,59.5638 313.071,60.8971 311,61.5C 310.832,59.1589 311.999,57.8256 314.5,57.5 Z"/></g>
<g><path style="opacity:1" fill="#acacac" d="M 277.5,60.5 C 280.722,60.1081 283.722,60.6081 286.5,62C 279.986,62.82 273.653,62.6533 267.5,61.5C 271.042,61.8128 274.375,61.4794 277.5,60.5 Z"/></g>
<g><path style="opacity:1" fill="#8f8f8f" d="M 174.5,59.5 C 174.5,62.1667 174.5,64.8333 174.5,67.5C 172.901,67.7678 171.568,67.4345 170.5,66.5C 171.5,66.5 172.5,66.5 173.5,66.5C 173.198,63.9407 173.532,61.6074 174.5,59.5 Z"/></g>
<g><path style="opacity:1" fill="#e1e1e1" d="M 330.5,60.5 C 332.337,60.6395 332.67,61.3061 331.5,62.5C 330.702,62.0431 330.369,61.3764 330.5,60.5 Z"/></g>
<g><path style="opacity:1" fill="#1c1c1c" d="M 181.5,62.5 C 187.882,62.7718 188.048,63.7718 182,65.5C 181.517,64.552 181.351,63.552 181.5,62.5 Z"/></g>
<g><path style="opacity:1" fill="#141414" d="M 194.5,62.5 C 195.978,62.238 197.311,62.5713 198.5,63.5C 196.926,64.6309 195.259,64.7975 193.5,64C 194.056,63.6174 194.389,63.1174 194.5,62.5 Z"/></g>
<g><path style="opacity:1" fill="#0d0d0d" d="M 298.5,62.5 C 300.199,62.3398 301.866,62.5065 303.5,63C 301.415,65.1391 299.749,64.9725 298.5,62.5 Z"/></g>
<g><path style="opacity:1" fill="#202020" d="M 310.5,63.5 C 312.035,62.2121 313.701,62.2121 315.5,63.5C 313.905,64.4339 312.239,64.4339 310.5,63.5 Z"/></g>
<g><path style="opacity:1" fill="#909090" d="M 321.5,61.5 C 321.94,63.8439 322.94,65.8439 324.5,67.5C 323.791,68.404 322.791,68.7373 321.5,68.5C 321.5,66.1667 321.5,63.8333 321.5,61.5 Z"/></g>
<g><path style="opacity:1" fill="#656565" d="M 407.5,62.5 C 409.607,63.4682 411.941,63.8016 414.5,63.5C 411.976,64.8003 409.309,64.8003 406.5,63.5C 406.624,62.8933 406.957,62.56 407.5,62.5 Z"/></g>
<g><path style="opacity:1" fill="#626262" d="M 445.5,62.5 C 453.65,63.4927 461.983,63.8261 470.5,63.5C 461.991,64.8214 453.325,64.8214 444.5,63.5C 444.624,62.8933 444.957,62.56 445.5,62.5 Z"/></g>
<g><path style="opacity:1" fill="#676767" d="M 507.5,62.5 C 508.043,62.56 508.376,62.8933 508.5,63.5C 505.691,64.8003 503.024,64.8003 500.5,63.5C 503.059,63.8016 505.393,63.4682 507.5,62.5 Z"/></g>
<g><path style="opacity:1" fill="#121212" d="M 314.5,68.5 C 312.804,68.3146 311.471,67.4813 310.5,66C 312.945,65.0902 314.278,65.9236 314.5,68.5 Z"/></g>
<g><path style="opacity:1" fill="#171717" d="M 185.5,65.5 C 186.239,65.369 186.906,65.5357 187.5,66C 183.974,70.615 183.307,70.4483 185.5,65.5 Z"/></g>
<g><path style="opacity:1" fill="#0f0f0f" d="M 188.5,67.5 C 189.434,68.5676 189.768,69.901 189.5,71.5C 188.448,71.6495 187.448,71.4828 186.5,71C 187.305,69.8873 187.972,68.7206 188.5,67.5 Z"/></g>
<g><path style="opacity:1" fill="#131313" d="M 305.5,66.5 C 306.788,68.0348 306.788,69.7015 305.5,71.5C 304.566,69.9052 304.566,68.2385 305.5,66.5 Z"/></g>
</svg>
